<svg xmlns="http://www.w3.org/2000/svg" width="22" height="23" viewBox="0 0 22 23" fill="none">
  <path d="M15.5 22V18.13C15.5375 17.6532 15.4731 17.1738 15.311 16.7238C15.1489 16.2738 14.8929 15.8634 14.56 15.52C17.7 15.17 21 13.98 21 8.52C20.9997 7.12383 20.4627 5.7812 19.5 4.77C19.9559 3.54851 19.9236 2.19835 19.41 0.999999C19.41 0.999999 18.23 0.649999 15.5 2.48C13.208 1.85882 10.792 1.85882 8.5 2.48C5.77 0.649999 4.59 0.999999 4.59 0.999999C4.07638 2.19835 4.04414 3.54851 4.5 4.77C3.53013 5.7887 2.99252 7.14346 3 8.55C3 13.97 6.3 15.16 9.44 15.55C9.111 15.89 8.85726 16.2954 8.69531 16.7399C8.53335 17.1844 8.46681 17.6581 8.5 18.13V22M8.5 19C3.5 20.5 3.5 16.5 1.5 16L8.5 19Z" stroke="#837E9F" stroke-width="2" stroke-linecap="round" stroke-linejoin="round"/>
</svg>